<mxGraphModel dx="1318" dy="859" grid="1" gridSize="10" guides="1" tooltips="1" connect="1" arrows="1" fold="1" page="1" pageScale="1" pageWidth="827" pageHeight="1169" math="0" shadow="0"><root><mxCell id="0"/><mxCell id="1" parent="0"/><mxCell id="ADd249F3NOKGjfhISSq1-1" value="Agropop" style="shape=umlFrame;whiteSpace=wrap;html=1;width=80;height=30;" parent="1" vertex="1"><mxGeometry x="120" y="120" width="580" height="360" as="geometry"/></mxCell><mxCell id="4" style="edgeStyle=none;html=1;entryX=0;entryY=0.5;entryDx=0;entryDy=0;" parent="1" source="ADd249F3NOKGjfhISSq1-2" target="3" edge="1"><mxGeometry relative="1" as="geometry"/></mxCell><mxCell id="8" style="edgeStyle=none;html=1;entryX=0;entryY=0.5;entryDx=0;entryDy=0;" parent="1" source="ADd249F3NOKGjfhISSq1-2" target="ADd249F3NOKGjfhISSq1-14" edge="1"><mxGeometry relative="1" as="geometry"/></mxCell><mxCell id="9" style="edgeStyle=none;html=1;entryX=0;entryY=0.5;entryDx=0;entryDy=0;" parent="1" source="ADd249F3NOKGjfhISSq1-2" target="ADd249F3NOKGjfhISSq1-8" edge="1"><mxGeometry relative="1" as="geometry"/></mxCell><mxCell id="18" style="edgeStyle=none;html=1;entryX=0.033;entryY=0.381;entryDx=0;entryDy=0;entryPerimeter=0;" parent="1" source="ADd249F3NOKGjfhISSq1-2" target="17" edge="1"><mxGeometry relative="1" as="geometry"/></mxCell><mxCell id="20" style="edgeStyle=none;html=1;" parent="1" source="ADd249F3NOKGjfhISSq1-2" target="19" edge="1"><mxGeometry relative="1" as="geometry"/></mxCell><mxCell id="ADd249F3NOKGjfhISSq1-2" value="Actor Agricultor" style="shape=umlActor;verticalLabelPosition=bottom;verticalAlign=top;html=1;" parent="1" vertex="1"><mxGeometry x="40" y="260" width="40" height="80" as="geometry"/></mxCell><mxCell id="ADd249F3NOKGjfhISSq1-8" value="Insertar productos" style="ellipse;whiteSpace=wrap;html=1;" parent="1" vertex="1"><mxGeometry x="210" y="140" width="90" height="52.5" as="geometry"/></mxCell><mxCell id="6" style="edgeStyle=none;html=1;entryX=1;entryY=0.5;entryDx=0;entryDy=0;" parent="1" source="ADd249F3NOKGjfhISSq1-9" target="5" edge="1"><mxGeometry relative="1" as="geometry"/></mxCell><mxCell id="7" style="edgeStyle=none;html=1;entryX=1;entryY=0.5;entryDx=0;entryDy=0;" parent="1" source="ADd249F3NOKGjfhISSq1-9" target="ADd249F3NOKGjfhISSq1-11" edge="1"><mxGeometry relative="1" as="geometry"/></mxCell><mxCell id="16" style="edgeStyle=none;html=1;entryX=1;entryY=0.5;entryDx=0;entryDy=0;" parent="1" source="ADd249F3NOKGjfhISSq1-9" target="15" edge="1"><mxGeometry relative="1" as="geometry"/></mxCell><mxCell id="22" style="edgeStyle=none;html=1;" parent="1" source="ADd249F3NOKGjfhISSq1-9" target="21" edge="1"><mxGeometry relative="1" as="geometry"/></mxCell><mxCell id="ADd249F3NOKGjfhISSq1-9" value="Actor usuario" style="shape=umlActor;verticalLabelPosition=bottom;verticalAlign=top;html=1;" parent="1" vertex="1"><mxGeometry x="730" y="260" width="40" height="80" as="geometry"/></mxCell><mxCell id="ADd249F3NOKGjfhISSq1-11" value="Consultar / comprar productos" style="ellipse;whiteSpace=wrap;html=1;" parent="1" vertex="1"><mxGeometry x="510" y="160" width="100" height="65" as="geometry"/></mxCell><mxCell id="ADd249F3NOKGjfhISSq1-14" value="Consultar / comprar productos" style="ellipse;whiteSpace=wrap;html=1;" parent="1" vertex="1"><mxGeometry x="170" y="267.5" width="100" height="65" as="geometry"/></mxCell><mxCell id="ADd249F3NOKGjfhISSq1-28" style="edgeStyle=orthogonalEdgeStyle;rounded=0;orthogonalLoop=1;jettySize=auto;html=1;entryX=0.5;entryY=1;entryDx=0;entryDy=0;" parent="1" source="ADd249F3NOKGjfhISSq1-23" target="ADd249F3NOKGjfhISSq1-27" edge="1"><mxGeometry relative="1" as="geometry"/></mxCell><mxCell id="ADd249F3NOKGjfhISSq1-23" value="&lt;div&gt;Actor usuario no identificado&lt;/div&gt;" style="shape=umlActor;verticalLabelPosition=bottom;verticalAlign=top;html=1;" parent="1" vertex="1"><mxGeometry x="390" y="505" width="40" height="80" as="geometry"/></mxCell><mxCell id="ADd249F3NOKGjfhISSq1-27" value="Autentificarse" style="ellipse;whiteSpace=wrap;html=1;" parent="1" vertex="1"><mxGeometry x="360" y="320" width="100" height="65" as="geometry"/></mxCell><mxCell id="3" value="Eliminar productos" style="ellipse;whiteSpace=wrap;html=1;" parent="1" vertex="1"><mxGeometry x="240" y="207.5" width="90" height="52.5" as="geometry"/></mxCell><mxCell id="5" value="Acceder a la ficha agricultor" style="ellipse;whiteSpace=wrap;html=1;" parent="1" vertex="1"><mxGeometry x="500" y="255" width="90" height="65" as="geometry"/></mxCell><mxCell id="15" value="Darse de alta Premium" style="ellipse;whiteSpace=wrap;html=1;" parent="1" vertex="1"><mxGeometry x="530" y="340" width="90" height="52.5" as="geometry"/></mxCell><mxCell id="17" value="Darse de alta Premium" style="ellipse;whiteSpace=wrap;html=1;" parent="1" vertex="1"><mxGeometry x="150" y="400" width="90" height="52.5" as="geometry"/></mxCell><mxCell id="19" value="Valorar Producto" style="ellipse;whiteSpace=wrap;html=1;" parent="1" vertex="1"><mxGeometry x="250" y="360" width="90" height="52.5" as="geometry"/></mxCell><mxCell id="21" value="Valorar Producto" style="ellipse;whiteSpace=wrap;html=1;" parent="1" vertex="1"><mxGeometry x="580" y="420" width="90" height="52.5" as="geometry"/></mxCell></root></mxGraphModel>